<svg xmlns="http://www.w3.org/2000/svg" width="880" height="800" viewBox="0 0 880 800">
  <rect width="880" height="800" fill="#fcfcf8"/>
  <text x="100" y="36" font-size="24" font-family="Arial" fill="#222">small-forest-test Ground Truth</text>
  <text x="100" y="58" font-size="14" font-family="Arial" fill="#555">Trees and bushes extracted from the Gazebo world file</text>

  <rect x="100" y="60" width="720" height="640" fill="#f7faf7" stroke="#b9c7b9" stroke-width="1.5"/>

  <line x1="100" y1="700" x2="820" y2="700" stroke="#d9dfd9" stroke-width="1"/>
  <line x1="100" y1="660" x2="820" y2="660" stroke="#d9dfd9" stroke-width="1"/>
  <line x1="100" y1="620" x2="820" y2="620" stroke="#d9dfd9" stroke-width="1"/>
  <line x1="100" y1="580" x2="820" y2="580" stroke="#d9dfd9" stroke-width="1"/>
  <line x1="100" y1="540" x2="820" y2="540" stroke="#d9dfd9" stroke-width="1"/>
  <line x1="100" y1="500" x2="820" y2="500" stroke="#d9dfd9" stroke-width="1"/>
  <line x1="100" y1="460" x2="820" y2="460" stroke="#d9dfd9" stroke-width="1"/>
  <line x1="100" y1="420" x2="820" y2="420" stroke="#d9dfd9" stroke-width="1"/>
  <line x1="100" y1="380" x2="820" y2="380" stroke="#d9dfd9" stroke-width="1"/>
  <line x1="100" y1="340" x2="820" y2="340" stroke="#d9dfd9" stroke-width="1"/>
  <line x1="100" y1="300" x2="820" y2="300" stroke="#d9dfd9" stroke-width="1"/>
  <line x1="100" y1="260" x2="820" y2="260" stroke="#d9dfd9" stroke-width="1"/>
  <line x1="100" y1="220" x2="820" y2="220" stroke="#d9dfd9" stroke-width="1"/>
  <line x1="100" y1="180" x2="820" y2="180" stroke="#d9dfd9" stroke-width="1"/>
  <line x1="100" y1="140" x2="820" y2="140" stroke="#d9dfd9" stroke-width="1"/>
  <line x1="100" y1="100" x2="820" y2="100" stroke="#d9dfd9" stroke-width="1"/>
  <line x1="100" y1="60" x2="820" y2="60" stroke="#d9dfd9" stroke-width="1"/>

  <line x1="100" y1="60" x2="100" y2="700" stroke="#d9dfd9" stroke-width="1"/>
  <line x1="140" y1="60" x2="140" y2="700" stroke="#d9dfd9" stroke-width="1"/>
  <line x1="180" y1="60" x2="180" y2="700" stroke="#d9dfd9" stroke-width="1"/>
  <line x1="220" y1="60" x2="220" y2="700" stroke="#d9dfd9" stroke-width="1"/>
  <line x1="260" y1="60" x2="260" y2="700" stroke="#d9dfd9" stroke-width="1"/>
  <line x1="300" y1="60" x2="300" y2="700" stroke="#d9dfd9" stroke-width="1"/>
  <line x1="340" y1="60" x2="340" y2="700" stroke="#d9dfd9" stroke-width="1"/>
  <line x1="380" y1="60" x2="380" y2="700" stroke="#d9dfd9" stroke-width="1"/>
  <line x1="420" y1="60" x2="420" y2="700" stroke="#d9dfd9" stroke-width="1"/>
  <line x1="460" y1="60" x2="460" y2="700" stroke="#d9dfd9" stroke-width="1"/>
  <line x1="500" y1="60" x2="500" y2="700" stroke="#d9dfd9" stroke-width="1"/>
  <line x1="540" y1="60" x2="540" y2="700" stroke="#d9dfd9" stroke-width="1"/>
  <line x1="580" y1="60" x2="580" y2="700" stroke="#d9dfd9" stroke-width="1"/>
  <line x1="620" y1="60" x2="620" y2="700" stroke="#d9dfd9" stroke-width="1"/>
  <line x1="660" y1="60" x2="660" y2="700" stroke="#d9dfd9" stroke-width="1"/>
  <line x1="700" y1="60" x2="700" y2="700" stroke="#d9dfd9" stroke-width="1"/>
  <line x1="740" y1="60" x2="740" y2="700" stroke="#d9dfd9" stroke-width="1"/>
  <line x1="780" y1="60" x2="780" y2="700" stroke="#d9dfd9" stroke-width="1"/>
  <line x1="820" y1="60" x2="820" y2="700" stroke="#d9dfd9" stroke-width="1"/>

  <line x1="100" y1="580" x2="820" y2="580" stroke="#8f9d8f" stroke-width="2"/>
  <line x1="260" y1="60" x2="260" y2="700" stroke="#8f9d8f" stroke-width="2"/>

  <text x="100" y="728" font-size="12" font-family="Arial" fill="#444" text-anchor="middle">-4</text>
  <text x="140" y="728" font-size="12" font-family="Arial" fill="#444" text-anchor="middle">-3</text>
  <text x="180" y="728" font-size="12" font-family="Arial" fill="#444" text-anchor="middle">-2</text>
  <text x="220" y="728" font-size="12" font-family="Arial" fill="#444" text-anchor="middle">-1</text>
  <text x="260" y="728" font-size="12" font-family="Arial" fill="#444" text-anchor="middle">0</text>
  <text x="300" y="728" font-size="12" font-family="Arial" fill="#444" text-anchor="middle">1</text>
  <text x="340" y="728" font-size="12" font-family="Arial" fill="#444" text-anchor="middle">2</text>
  <text x="380" y="728" font-size="12" font-family="Arial" fill="#444" text-anchor="middle">3</text>
  <text x="420" y="728" font-size="12" font-family="Arial" fill="#444" text-anchor="middle">4</text>
  <text x="460" y="728" font-size="12" font-family="Arial" fill="#444" text-anchor="middle">5</text>
  <text x="500" y="728" font-size="12" font-family="Arial" fill="#444" text-anchor="middle">6</text>
  <text x="540" y="728" font-size="12" font-family="Arial" fill="#444" text-anchor="middle">7</text>
  <text x="580" y="728" font-size="12" font-family="Arial" fill="#444" text-anchor="middle">8</text>
  <text x="620" y="728" font-size="12" font-family="Arial" fill="#444" text-anchor="middle">9</text>
  <text x="660" y="728" font-size="12" font-family="Arial" fill="#444" text-anchor="middle">10</text>
  <text x="700" y="728" font-size="12" font-family="Arial" fill="#444" text-anchor="middle">11</text>
  <text x="740" y="728" font-size="12" font-family="Arial" fill="#444" text-anchor="middle">12</text>
  <text x="780" y="728" font-size="12" font-family="Arial" fill="#444" text-anchor="middle">13</text>
  <text x="820" y="728" font-size="12" font-family="Arial" fill="#444" text-anchor="middle">14</text>

  <text x="82" y="704" font-size="12" font-family="Arial" fill="#444" text-anchor="end">-3</text>
  <text x="82" y="664" font-size="12" font-family="Arial" fill="#444" text-anchor="end">-2</text>
  <text x="82" y="624" font-size="12" font-family="Arial" fill="#444" text-anchor="end">-1</text>
  <text x="82" y="584" font-size="12" font-family="Arial" fill="#444" text-anchor="end">0</text>
  <text x="82" y="544" font-size="12" font-family="Arial" fill="#444" text-anchor="end">1</text>
  <text x="82" y="504" font-size="12" font-family="Arial" fill="#444" text-anchor="end">2</text>
  <text x="82" y="464" font-size="12" font-family="Arial" fill="#444" text-anchor="end">3</text>
  <text x="82" y="424" font-size="12" font-family="Arial" fill="#444" text-anchor="end">4</text>
  <text x="82" y="384" font-size="12" font-family="Arial" fill="#444" text-anchor="end">5</text>
  <text x="82" y="344" font-size="12" font-family="Arial" fill="#444" text-anchor="end">6</text>
  <text x="82" y="304" font-size="12" font-family="Arial" fill="#444" text-anchor="end">7</text>
  <text x="82" y="264" font-size="12" font-family="Arial" fill="#444" text-anchor="end">8</text>
  <text x="82" y="224" font-size="12" font-family="Arial" fill="#444" text-anchor="end">9</text>
  <text x="82" y="184" font-size="12" font-family="Arial" fill="#444" text-anchor="end">10</text>
  <text x="82" y="144" font-size="12" font-family="Arial" fill="#444" text-anchor="end">11</text>
  <text x="82" y="104" font-size="12" font-family="Arial" fill="#444" text-anchor="end">12</text>
  <text x="82" y="64" font-size="12" font-family="Arial" fill="#444" text-anchor="end">13</text>

  <text x="460" y="770" font-size="16" font-family="Arial" fill="#333" text-anchor="middle">X (m)</text>
  <text x="28" y="380" font-size="16" font-family="Arial" fill="#333" text-anchor="middle" transform="rotate(-90 28 380)">Y (m)</text>

  <circle cx="440.87" cy="428.93" r="8" fill="#2f7d32" stroke="#184d1d" stroke-width="1.5"/>
  <circle cx="538.92" cy="518.85" r="8" fill="#2f7d32" stroke="#184d1d" stroke-width="1.5"/>
  <circle cx="590.96" cy="388.62" r="8" fill="#2f7d32" stroke="#184d1d" stroke-width="1.5"/>
  <circle cx="458.89" cy="307.42" r="8" fill="#2f7d32" stroke="#184d1d" stroke-width="1.5"/>
  <circle cx="709.03" cy="501.34" r="8" fill="#2f7d32" stroke="#184d1d" stroke-width="1.5"/>

  <rect x="307.49" y="137.40" width="12" height="12" fill="#c96b1f" stroke="#7a3f10" stroke-width="1.5"/>
  <rect x="355.19" y="199.43" width="12" height="12" fill="#c96b1f" stroke="#7a3f10" stroke-width="1.5"/>
  <rect x="381.68" y="109.03" width="12" height="12" fill="#c96b1f" stroke="#7a3f10" stroke-width="1.5"/>
  <rect x="437.49" y="528.50" width="12" height="12" fill="#c96b1f" stroke="#7a3f10" stroke-width="1.5"/>
  <rect x="694.76" y="615.11" width="12" height="12" fill="#c96b1f" stroke="#7a3f10" stroke-width="1.5"/>
  <rect x="763.98" y="652.97" width="12" height="12" fill="#c96b1f" stroke="#7a3f10" stroke-width="1.5"/>
  <rect x="157.55" y="409.13" width="12" height="12" fill="#c96b1f" stroke="#7a3f10" stroke-width="1.5"/>

  <rect x="620" y="84" width="180" height="78" rx="8" fill="#ffffff" stroke="#cfd7cf"/>
  <circle cx="642" cy="108" r="7" fill="#2f7d32" stroke="#184d1d" stroke-width="1.5"/>
  <text x="658" y="113" font-size="14" font-family="Arial" fill="#333">Tree</text>
  <rect x="635" y="127" width="12" height="12" fill="#c96b1f" stroke="#7a3f10" stroke-width="1.5"/>
  <text x="658" y="138" font-size="14" font-family="Arial" fill="#333">Bush</text>
  <text x="635" y="154" font-size="12" font-family="Arial" fill="#666">5 trees, 7 bushes</text>
</svg>
